<?xml version="1.0" standalone="no"?>
<!DOCTYPE svg PUBLIC "-//W3C//DTD SVG 20010904//EN"
 "http://www.w3.org/TR/2001/REC-SVG-20010904/DTD/svg10.dtd">
<svg version="1.0" xmlns="http://www.w3.org/2000/svg"
 width="300.000000pt" height="300.000000pt" viewBox="0 0 300.000000 300.000000"
 preserveAspectRatio="xMidYMid meet">
<metadata>
Created by potrace 1.14, written by Peter Selinger 2001-2017
</metadata>
<g transform="translate(0.000000,300.000000) scale(0.100000,-0.100000)"
fill="#000000" stroke="none">
<path d="M1077 2929 l-68 -68 0 -110 1 -111 -358 -2 -357 -3 0 -1315 0 -1315
1205 0 1205 0 0 1315 0 1315 -355 5 -355 5 0 107 0 108 -70 70 -69 70 -356 -1
-355 -1 -68 -69z m751 -78 c21 -1 22 -4 22 -106 l0 -105 -345 0 -345 0 0 103
c0 57 2 106 4 108 4 3 595 4 664 0z"/>
</g>
</svg>
